# xmcd CD database file generated by OrangeCD 6.4
#
# Track frame offsets:
#	150
#	22631
#	46470
#	60889
#	81721
#	121608
#	148180
#	189828
#	215985
#
# Disc length: 3148 seconds
#
# Revision: 0
# Processed by: cddbd v1.5.2PL0 Copyright (c) Steve Scherf et al.
# Submitted via: OrangeCD 6.4
#
DISCID=770c4a09
DTITLE=Robben Ford - Ohne Filter - In Concert Revisited
DYEAR=1900
DGENRE=
TTITLE0=Just Like It Is
TTITLE1=When I Leave Here
TTITLE2=The Miller's Son
TTITLE3=Chevrolet
TTITLE4=Freedom
TTITLE5=Top Of The Hill
TTITLE6=Tiger Walk
TTITLE7=The Champ
TTITLE8=In The Beginning
EXTD=
EXTT0=
EXTT1=
EXTT2=
EXTT3=
EXTT4=
EXTT5=
EXTT6=
EXTT7=
EXTT8=
PLAYORDER=
